# xmcd CD database file
#
# Track frame offsets:
#	150
#	17811
#	33206
#	57468
#	82824
#	96179
#	115326
#	130944
#	149794
#	183962
#	218780
#	237948
#	254499
#	268630
#	281228
#	294417
#	316869
#
# Disc length: 4596 seconds
#
# Revision: 0
# Processed by: cddbd v1.5.2PL0 Copyright (c) Steve Scherf et al.
# Submitted via: CDex 1.51
#
DISCID=0011f211
DTITLE=Various Artist - Guitares Jazz
DYEAR=2007
DGENRE=Jazz
TTITLE0=James Blood Ulmer - On and on
TTITLE1=Wes Montgomery - The Joker
TTITLE2=John Scofield - Boozer
TTITLE3=Jerry Garcia and Howard Wales - South Side Strut
TTITLE4=Django Reinhardt - Flèche d'Or
TTITLE5=Georges Benson - The Cooker
TTITLE6=Kenny Burrel - My Favorite Things
TTITLE7=Karl Ratzer - Centerfold
TTITLE8=A. Ceccarelli and J. Mc Laughlin - Tones For Elvin
TTITLE9=Philip Catherine - Janet
TTITLE10=Bireli Lagrene - It's Alright With Me
TTITLE11=Knut Vaernes - Super Duper
TTITLE12=Barney Kessel - Foggy Day
TTITLE13=Charlie Christian Solo Flight
TTITLE14=Luis salinas - Latin Bebop
TTITLE15=Barthelemy - Lidos
TTITLE16=C. Corea and J. de Johnette and P. Metheny... - All blues (live) 
EXTD=YEAR: 2007
EXTT0=
EXTT1=
EXTT2=
EXTT3=
EXTT4=
EXTT5=
EXTT6=
EXTT7=
EXTT8=
EXTT9=
EXTT10=
EXTT11=
EXTT12=
EXTT13=
EXTT14=
EXTT15=
EXTT16=
PLAYORDER=
